<?xml version="1.0" encoding="utf-8"?>
<svg viewBox="0 0 226.8 226.8" style="enable-background:new 0 0 226.8 226.8;" xmlns="http://www.w3.org/2000/svg">
  <defs>
    <style type="text/css">
	.st11{fill:#FFFFFF;}
</style>
  </defs>
  <path class="st11" d="M 55.728 15.607 C 54.815 14.654 53.595 14.176 52.376 14.176 C 51.006 14.176 49.789 14.813 49.027 15.607 C 48.114 16.562 47.657 17.836 47.657 19.109 C 47.657 20.539 48.266 21.813 49.027 22.609 C 49.94 23.562 51.16 24.04 52.376 24.04 C 53.748 24.04 54.966 23.403 55.728 22.609 C 56.641 21.654 57.098 20.38 57.098 19.109 C 57.098 17.836 56.641 16.562 55.728 15.607 M 79.942 54.267 C 79.027 53.313 77.811 52.836 76.592 52.836 C 75.222 52.836 74.002 53.47 73.242 54.267 C 72.327 55.222 71.869 56.494 71.869 57.766 C 71.869 59.198 72.48 60.473 73.242 61.267 C 74.155 62.221 75.373 62.698 76.592 62.698 C 77.962 62.698 79.18 62.062 79.942 61.267 C 80.855 60.313 81.313 59.04 81.313 57.766 C 81.313 56.494 80.703 55.222 79.942 54.267 Z M 61.057 63.654 L 44.458 64.449 C 42.631 64.449 40.042 65.88 37.605 67.949 C 35.473 69.858 13.696 97.381 13.239 102.789 C 12.631 108.517 13.239 114.881 14.763 119.335 C 15.066 120.291 15.37 121.086 15.829 121.722 C 17.808 125.062 19.331 127.449 20.701 129.199 C 23.9 133.812 25.878 136.517 25.878 142.086 L 25.878 186.154 C 25.878 188.221 24.661 190.608 23.138 193.79 C 20.854 198.561 17.35 205.881 17.35 210.494 C 17.35 211.449 18.112 212.086 20.245 212.086 L 28.926 212.086 L 28.926 224.018 L 20.245 224.018 C 9.583 224.018 5.929 218.29 5.929 210.335 C 5.929 203.017 10.194 194.109 13.086 188.381 C 14 186.632 14.61 186.79 14.61 186.154 L 14.61 142.086 C 14.61 140.495 13.543 138.904 11.716 136.2 C 10.194 133.972 8.366 131.426 6.233 127.767 C 5.473 126.336 4.71 124.904 4.253 123.313 C 2.12 117.108 1.513 108.836 2.12 101.517 C 3.187 90.859 24.813 63.494 30.753 58.563 C 35.018 54.903 40.346 52.358 44.763 52.358 L 61.516 51.563 C 62.277 49.335 63.647 47.267 65.169 45.677 C 68.063 42.653 72.176 40.744 76.745 40.744 C 81.313 40.744 85.273 42.653 88.318 45.677 C 91.212 48.7 93.04 52.994 93.04 57.766 C 93.04 62.539 91.212 66.677 88.318 69.858 C 85.424 72.881 81.313 74.789 76.745 74.789 C 72.176 74.789 68.215 72.881 65.169 69.858 C 63.19 68.109 61.972 66.04 61.057 63.654 Z M 121.669 224.176 L 113.902 224.176 C 111.466 224.176 108.419 223.222 106.288 220.518 C 104.765 218.608 103.7 216.062 103.7 212.723 L 103.7 141.767 C 103.7 139.7 96.542 137.154 88.013 135.404 C 84.359 134.607 80.398 134.13 76.745 134.13 C 73.089 134.13 69.587 134.449 66.54 135.085 C 61.82 136.2 58.622 138.426 58.622 141.926 L 58.622 142.086 L 58.622 186.154 C 58.622 188.221 57.403 190.608 55.881 193.79 C 53.595 198.561 50.093 205.881 50.093 210.494 C 50.093 211.449 50.855 212.086 52.987 212.086 L 61.667 212.086 L 61.667 224.018 L 52.835 224.018 C 42.174 224.018 38.52 218.29 38.52 210.335 C 38.52 203.017 42.784 194.109 45.677 188.381 C 46.59 186.632 47.2 186.79 47.2 186.154 L 47.2 142.086 C 47.048 131.585 54.052 125.859 63.952 123.472 C 67.912 122.517 72.327 122.041 76.896 122.198 C 81.464 122.198 86.033 122.835 90.145 123.631 C 103.7 126.336 115.274 133.336 115.274 141.767 L 115.274 212.245 L 121.821 212.245 L 121.821 224.176 L 121.669 224.176 Z M 52.376 2.085 C 56.947 2.085 60.905 3.995 63.952 7.017 C 65.474 8.607 66.692 10.517 67.606 12.744 L 82.074 12.744 C 88.775 12.744 93.647 14.176 97.608 17.039 C 101.414 19.744 104.004 23.403 106.288 27.858 C 108.419 31.835 110.094 33.267 114.054 36.449 C 115.881 38.04 118.319 39.949 121.669 42.812 C 128.674 49.018 131.873 64.768 134.766 78.45 C 135.679 82.745 137.355 103.108 143.142 87.199 C 145.122 81.949 146.036 75.109 146.34 67.949 C 146.645 60.313 146.036 52.517 144.969 46.313 C 144.817 45.677 136.898 44.562 137.811 34.858 C 138.268 29.927 141.163 26.108 145.578 23.403 C 150.757 20.38 158.524 18.791 167.052 18.791 C 175.123 18.791 184.26 20.062 192.635 22.449 C 206.952 26.745 219.591 34.698 223.247 46.313 C 224.312 49.812 224.464 53.789 223.551 57.289 C 222.942 59.995 221.724 62.539 220.047 64.608 C 218.069 66.995 215.479 68.586 212.282 68.903 C 210.15 69.063 207.864 68.586 205.581 67.472 C 202.535 65.88 199.643 65.085 196.9 65.244 C 194.463 65.402 192.026 66.2 189.743 67.949 C 185.63 71.13 181.366 71.29 177.713 70.495 C 176.34 83.063 172.991 102.313 167.203 116.949 C 161.873 130.472 154.259 140.654 143.903 140.654 C 143.295 140.654 142.99 140.813 142.685 141.131 C 142.229 141.449 142.076 141.767 142.076 141.926 L 142.076 212.404 L 148.624 212.404 L 148.624 224.336 L 140.858 224.336 C 138.42 224.336 135.375 223.381 133.243 220.677 C 131.72 218.767 130.653 216.222 130.653 212.881 L 130.653 141.926 C 130.653 139.222 132.026 135.085 135.071 132.382 C 137.203 130.312 140.248 128.722 144.056 128.722 C 148.776 128.722 153.04 121.722 156.696 112.495 C 163.549 95.154 166.746 70.972 167.052 61.584 L 176.189 56.812 C 176.189 56.812 180.149 60.154 182.89 58.085 C 187.001 55.062 191.418 53.47 196.29 53.153 C 201.013 52.994 205.732 54.108 210.454 56.654 C 210.759 56.812 211.062 56.972 211.215 56.812 C 211.215 56.812 211.215 56.812 211.367 56.654 C 211.824 56.176 212.129 55.38 212.433 54.426 C 212.74 52.994 212.74 51.404 212.282 50.131 C 209.997 42.812 200.402 37.403 189.438 34.063 C 181.975 31.835 174.057 30.721 167.052 30.721 C 160.351 30.721 154.715 31.835 151.213 33.904 C 149.995 34.698 149.234 35.493 149.081 36.131 C 149.081 36.608 151.518 36.608 152.279 37.403 C 154.563 39.312 155.326 40.744 156.086 44.244 C 157.458 51.086 158.066 59.995 157.609 68.586 C 157.305 76.857 156.086 85.131 153.65 91.653 C 150.757 99.448 146.34 105.017 139.639 106.45 C 138.573 106.607 137.355 106.767 135.984 106.767 C 128.522 106.45 126.085 94.835 123.344 81.313 C 120.909 69.54 118.014 55.699 114.054 52.199 C 111.161 49.654 108.876 47.744 106.897 46.153 C 101.719 42.018 99.435 40.108 96.084 33.745 C 94.561 30.88 93.04 28.494 91.058 27.222 C 89.079 25.79 86.186 24.995 81.921 24.995 L 67.606 24.995 C 66.845 27.381 65.474 29.608 63.799 31.357 C 60.905 34.381 56.794 36.29 52.225 36.29 C 47.657 36.29 43.698 34.381 40.651 31.357 C 37.757 28.336 35.93 24.04 35.93 19.268 C 35.93 14.494 37.757 10.358 40.651 7.176 C 43.698 3.995 47.807 2.085 52.376 2.085 Z" style="" transform="matrix(1, 0, 0, 1, 1.7763568394002505e-15, 3.552713678800501e-15)"/>
</svg>